<svg xmlns="http://www.w3.org/2000/svg" version="1.1" xmlns:xlink="http://www.w3.org/1999/xlink" xmlns:svgjs="http://svgjs.dev/svgjs" width="100%" height="100%" viewBox="0 0 1000 600"><rect width="1000" height="600" x="0" y="0" fill="#f9d342"/><g><rect width="333.3333333333333" height="333.3333333333333" rx="13.333333333333334" ry="13.333333333333334" y="624.3747518853097" fill="#f81894" transform="matrix(0.20758856487037913,0,0,0.20758856487037913,0,135.78882615483855)" x="602.1526489257811"/><path d="M825.3058741273508 852.5176588546187L825.3058741273508 852.5176588546187Q825.3058741273508 862.6690696931372 828.2308569113306 864.1143553040448L828.2308569113306 864.1143553040448Q829.9170234573896 864.8369981094987 832.8075946792051 864.8369981094987L832.8075946792051 864.8369981094987L832.8075946792051 819.1040319929192L826.9920406734097 819.1040319929192Q814.6727014185298 859.0214441037034 777.6458605295609 859.2623250388547L777.6458605295609 859.2623250388547Q746.193692711236 859.2623250388547 734.8034656347967 827.5692762853786L734.8034656347967 827.5692762853786Q729.2632041263172 812.0840733113674 729.2632041263172 791.0586088288768L729.2632041263172 791.0586088288768Q729.2632041263172 745.8074045825997 754.1771751333929 729.5995588031348L754.1771751333929 729.5995588031348Q765.0512287773652 722.8204810567344 778.3685033350147 722.8204810567344L778.3685033350147 722.8204810567344Q808.6162664775832 722.8204810567344 822.1744219703841 751.3476660910793L822.1744219703841 751.3476660910793Q824.583231321897 756.4405772914207 826.269397867956 761.7743694269135L826.269397867956 761.7743694269135L832.0849518737512 761.7743694269135L831.3623090682973 717.2458079860903Q826.0285169328046 717.2458079860903 824.8241122570481 720.6525526403728L824.8241122570481 720.6525526403728Q824.1014694515943 723.5431238621882 824.1014694515943 730.0813206734373L824.1014694515943 730.0813206734373Q817.0815107700427 723.0613619918856 800.1510221851237 718.691093596998L800.1510221851237 718.691093596998Q789.0016760438358 716.0414033103339 777.4049795944096 716.0414033103339L777.4049795944096 716.0414033103339Q739.1737340296844 716.0414033103339 718.836500790483 744.362118971692L718.836500790483 744.362118971692Q704.8309949895441 764.4240597135775 704.8309949895441 790.5768469585742L704.8309949895441 790.5768469585742Q704.8309949895441 822.2698957120502 724.411173861127 843.7771220648436L724.411173861127 843.7771220648436Q745.2301689706309 866.0414027852552 778.6093842701661 866.0414027852552L778.6093842701661 866.0414027852552Q803.0415934069391 865.8005218501038 825.3058741273508 852.5176588546187Z " fill="#f9d342" transform="matrix(0.20758856487037913,0,0,0.20758856487037913,0,135.78882615483855)"/><path d="M1045.9356061017274 863.6325934337423L1112.4531557656464 863.6325934337423Q1112.4531557656464 858.2988012982495 1108.5990608032262 857.5761584927957L1108.5990608032262 857.5761584927957Q1107.3946561274697 857.3352775576444 1106.1558398895486 857.3352775576444L1106.1558398895486 857.3352775576444L1089.7071131749326 857.3352775576444L1089.7071131749326 724.7475285379446L1103.7470305380357 724.7475285379446Q1123.3616209717834 724.7475285379446 1129.865406220868 748.4570948692639L1129.865406220868 748.4570948692639Q1129.865406220868 749.420618609869 1130.1062871560193 749.9023804801716L1130.1062871560193 749.9023804801716L1133.9947936806043 766.1102262596365L1140.773871427005 766.1102262596365L1139.5694667512485 718.4502126618468L1020.0236997918822 718.4502126618468L1018.8192951161258 766.1102262596365L1025.5983728625265 766.1102262596365L1029.4524678249468 749.9023804801716Q1037.1950693119525 726.1928141488523 1055.8461360050946 724.7475285379446L1055.8461360050946 724.7475285379446L1068.9225296275931 724.7475285379446L1068.9225296275931 857.3352775576444L1045.9356061017274 857.3352775576444L1045.9356061017274 863.6325934337423ZM1158.90876468768 863.6325934337423L1218.1998862970604 863.6325934337423Q1218.1998862970604 858.2988012982495 1214.3113797724754 857.5761584927957L1214.3113797724754 857.5761584927957Q1213.106975096719 857.3352775576444 1211.9025704209625 857.3352775576444L1211.9025704209625 857.3352775576444L1199.0670577336155 857.3352775576444L1199.0670577336155 792.2630135046332L1273.3616204467044 792.2630135046332L1273.3616204467044 857.3352775576444L1253.9879109481085 857.3352775576444L1253.9879109481085 863.6325934337423L1313.2790325574888 863.6325934337423Q1313.2790325574888 858.2988012982495 1309.424937595068 857.5761584927957L1309.424937595068 857.5761584927957Q1308.1861213571474 857.3352775576444 1306.981716681391 857.3352775576444L1306.981716681391 857.3352775576444L1294.1806155562085 857.3352775576444L1294.1806155562085 724.7475285379446L1313.2790325574888 724.7475285379446L1313.2790325574888 718.4502126618468L1253.9879109481085 718.4502126618468L1253.9879109481085 724.7475285379446L1273.3616204467044 724.7475285379446L1273.3616204467044 785.2430548230815L1199.0670577336155 785.2430548230815L1199.0670577336155 724.7475285379446L1218.1998862970604 724.7475285379446L1218.1998862970604 718.4502126618468L1158.90876468768 718.4502126618468L1158.90876468768 724.7475285379446L1178.282474186276 724.7475285379446L1178.282474186276 857.3352775576444L1158.90876468768 857.3352775576444L1158.90876468768 863.6325934337423ZM1440.5674010038601 762.0152503620648L1445.385019706886 762.0152503620648L1444.1806150311295 718.4502126618468L1332.6527420560851 718.4502126618468L1332.6527420560851 724.7475285379446L1351.9920399925168 724.7475285379446L1351.9920399925168 857.3352775576444L1332.6527420560851 857.3352775576444L1332.6527420560851 863.6325934337423L1444.1806150311295 863.6325934337423L1445.385019706886 820.0675557335243L1440.5674010038601 820.0675557335243L1437.160656349578 831.4577828099635Q1431.1042214086315 852.0014854221516 1419.2666440240537 856.130872881888L1419.2666440240537 856.130872881888Q1415.61901843462 857.3352775576444 1411.5240425370484 857.3352775576444L1411.5240425370484 857.3352775576444L1372.8110351020205 857.3352775576444L1372.8110351020205 792.2630135046332L1422.6389771161716 792.2630135046332L1422.6389771161716 785.2430548230815L1372.8110351020205 785.2430548230815L1372.8110351020205 724.7475285379446L1411.5240425370484 724.7475285379446Q1428.9362929922695 724.7475285379446 1436.4380135441238 748.2162139341126L1436.4380135441238 748.2162139341126Q1436.9197754144266 749.6614995450203 1437.160656349578 750.6250232856254L1437.160656349578 750.6250232856254L1440.5674010038601 762.0152503620648ZM1637.2638903359662 852.5176588546187L1637.2638903359662 852.5176588546187Q1637.2638903359662 862.6690696931372 1640.1544615577818 864.1143553040448L1640.1544615577818 864.1143553040448Q1641.8750396660053 864.8369981094987 1644.7656108878205 864.8369981094987L1644.7656108878205 864.8369981094987L1644.7656108878205 819.1040319929192L1638.9500568820254 819.1040319929192Q1626.6307176271453 859.0214441037034 1589.6038767381765 859.2623250388547L1589.6038767381765 859.2623250388547Q1558.1517089198514 859.2623250388547 1546.7614818434122 827.5692762853786L1546.7614818434122 827.5692762853786Q1541.2212203349327 812.0840733113674 1541.2212203349327 791.0586088288768L1541.2212203349327 791.0586088288768Q1541.2212203349327 745.8074045825997 1566.1351913420085 729.5995588031348L1566.1351913420085 729.5995588031348Q1577.0092449859808 722.8204810567344 1590.3265195436302 722.8204810567344L1590.3265195436302 722.8204810567344Q1620.5742826861988 722.8204810567344 1634.1324381789996 751.3476660910793L1634.1324381789996 751.3476660910793Q1636.5412475305125 756.4405772914207 1638.2274140765712 761.7743694269135L1638.2274140765712 761.7743694269135L1644.0429680823668 761.7743694269135L1643.320325276913 717.2458079860903Q1637.9865331414203 717.2458079860903 1636.7821284656638 720.6525526403728L1636.7821284656638 720.6525526403728Q1636.0594856602097 723.5431238621882 1636.0594856602097 730.0813206734373L1636.0594856602097 730.0813206734373Q1629.0395269786582 723.0613619918856 1612.1090383937394 718.691093596998L1612.1090383937394 718.691093596998Q1600.959692252451 716.0414033103339 1589.3629958030251 716.0414033103339L1589.3629958030251 716.0414033103339Q1551.1317502383 716.0414033103339 1530.7945169990985 744.362118971692L1530.7945169990985 744.362118971692Q1516.754599635995 764.4240597135775 1516.754599635995 790.5768469585742L1516.754599635995 790.5768469585742Q1516.754599635995 822.2698957120502 1536.3691900697427 843.7771220648436L1536.3691900697427 843.7771220648436Q1557.1881851792464 866.0414027852552 1590.5674004787816 866.0414027852552L1590.5674004787816 866.0414027852552Q1614.9996096155546 865.8005218501038 1637.2638903359662 852.5176588546187ZM1665.3437250621732 863.6325934337423L1724.6004351093889 863.6325934337423Q1724.6004351093889 858.2988012982495 1720.7463401469686 857.5761584927957L1720.7463401469686 857.5761584927957Q1719.5419354712121 857.3352775576444 1718.303119233291 857.3352775576444L1718.303119233291 857.3352775576444L1705.5020181081086 857.3352775576444L1705.5020181081086 792.2630135046332L1779.7621692590333 792.2630135046332L1779.7621692590333 857.3352775576444L1760.4228713226016 857.3352775576444L1760.4228713226016 863.6325934337423L1819.713992931982 863.6325934337423Q1819.713992931982 858.2988012982495 1815.825486407397 857.5761584927957L1815.825486407397 857.5761584927957Q1814.6210817316405 857.3352775576444 1813.416677055884 857.3352775576444L1813.416677055884 857.3352775576444L1800.581164368537 857.3352775576444L1800.581164368537 724.7475285379446L1819.713992931982 724.7475285379446L1819.713992931982 718.4502126618468L1760.4228713226016 718.4502126618468L1760.4228713226016 724.7475285379446L1779.7621692590333 724.7475285379446L1779.7621692590333 785.2430548230815L1705.5020181081086 785.2430548230815L1705.5020181081086 724.7475285379446L1724.6004351093889 724.7475285379446L1724.6004351093889 718.4502126618468L1665.3437250621732 718.4502126618468L1665.3437250621732 724.7475285379446L1684.6830229986049 724.7475285379446L1684.6830229986049 857.3352775576444L1665.3437250621732 857.3352775576444L1665.3437250621732 863.6325934337423ZM1839.0532908684136 863.6325934337423L1898.3444124777939 863.6325934337423L1898.3444124777939 857.3352775576444L1879.2115839143494 857.3352775576444L1879.2115839143494 797.0806322076588L1902.1985074402146 797.0806322076588L1940.9115148752426 863.6325934337423L1977.456593893909 863.6325934337423Q1977.456593893909 858.2988012982495 1974.5660226720934 857.5761584927957L1974.5660226720934 857.5761584927957Q1973.3272064341722 857.3352775576444 1971.6410398881135 857.3352775576444L1971.6410398881135 857.3352775576444L1962.4531527902 857.3352775576444L1923.499264420021 794.9127037912973Q1946.4861879458863 789.3380307206533 1954.9514322383457 770.9622565248268L1954.9514322383457 770.9622565248268Q1958.0828843953127 763.7014169081237 1958.0828843953127 756.1996963562694L1958.0828843953127 756.1996963562694Q1958.0828843953127 738.0648030955941 1942.35680048615 727.1563378894574L1942.35680048615 727.1563378894574Q1929.5556993609675 718.4502126618468 1910.663751732674 718.4502126618468L1910.663751732674 718.4502126618468L1839.0532908684136 718.4502126618468L1839.0532908684136 724.7475285379446L1858.42700036701 724.7475285379446L1858.42700036701 857.3352775576444L1839.0532908684136 857.3352775576444L1839.0532908684136 863.6325934337423ZM1879.2115839143494 724.7475285379446L1903.402912115971 724.7475285379446Q1924.2219072254748 724.7475285379446 1932.2053896476318 741.6780171228635L1932.2053896476318 741.6780171228635Q1935.3368418045984 748.6979758044151 1935.3368418045984 756.4405772914207L1935.3368418045984 756.4405772914207Q1935.3368418045984 773.8528277466422 1923.2583834848697 783.5568882770225L1923.2583834848697 783.5568882770225Q1915.0340201275617 790.0606735261072 1904.1255549214247 790.0606735261072L1904.1255549214247 790.0606735261072L1879.2115839143494 790.0606735261072L1879.2115839143494 724.7475285379446ZM2063.347853056424 716.0414033103339L2063.347853056424 716.0414033103339Q2034.3044945896117 716.0414033103339 2013.5199110422723 735.1398203116142L2013.5199110422723 735.1398203116142Q1990.7738684515584 756.1996963562694 1990.7738684515584 790.0606735261072L1990.7738684515584 790.0606735261072Q1990.7738684515584 829.289854393602 2017.6148869398444 850.556199811244L2017.6148869398444 850.556199811244Q2037.2294773735916 866.0414027852552 2062.62521025097 866.0414027852552L2062.62521025097 866.0414027852552Q2091.186806847479 866.0414027852552 2111.7305094596677 846.7021048488234L2111.7305094596677 846.7021048488234Q2134.717432985533 825.1604669338657 2134.717432985533 791.0586088288768L2134.717432985533 791.0586088288768Q2134.717432985533 751.1067851559279 2106.912890756642 730.3222016085887L2106.912890756642 730.3222016085887Q2088.0209431283483 716.0414033103339 2063.347853056424 716.0414033103339ZM2063.347853056424 859.2623250388547L2063.347853056424 859.2623250388547Q2028.2480596486653 859.2623250388547 2018.337529745298 821.7881338417477L2018.337529745298 821.7881338417477Q2014.96519665318 808.4708592840981 2014.96519665318 791.0586088288768L2014.96519665318 791.0586088288768Q2014.96519665318 733.4536537655553 2049.789697563623 724.265766667642L2049.789697563623 724.265766667642Q2055.8461325045696 722.8204810567344 2062.62521025097 722.8204810567344L2062.62521025097 722.8204810567344Q2110.28522384876 723.3022429270369 2110.5261047839113 790.0606735261072L2110.5261047839113 790.0606735261072Q2110.5261047839113 842.8135983242383 2081.2418653819477 855.6491110115854L2081.2418653819477 855.6491110115854Q2073.0175020246397 859.2623250388547 2063.347853056424 859.2623250388547ZM2280.6224565628822 852.5176588546187L2280.6224565628822 852.5176588546187Q2280.6224565628822 862.6690696931372 2283.513027784698 864.1143553040448L2283.513027784698 864.1143553040448Q2285.2336058929213 864.8369981094987 2288.1241771147365 864.8369981094987L2288.1241771147365 864.8369981094987L2288.1241771147365 819.1040319929192L2282.3086231089414 819.1040319929192Q2269.9892838540613 859.0214441037034 2232.9624429650926 859.2623250388547L2232.9624429650926 859.2623250388547Q2201.5102751467675 859.2623250388547 2190.1200480703283 827.5692762853786L2190.1200480703283 827.5692762853786Q2184.579786561849 812.0840733113674 2184.579786561849 791.0586088288768L2184.579786561849 791.0586088288768Q2184.579786561849 745.8074045825997 2209.4937575689246 729.5995588031348L2209.4937575689246 729.5995588031348Q2220.367811212897 722.8204810567344 2233.6850857705463 722.8204810567344L2233.6850857705463 722.8204810567344Q2263.932848913115 722.8204810567344 2277.4910044059156 751.3476660910793L2277.4910044059156 751.3476660910793Q2279.8998137574285 756.4405772914207 2281.5859803034878 761.7743694269135L2281.5859803034878 761.7743694269135L2287.401534309283 761.7743694269135L2286.678891503829 717.2458079860903Q2281.3450993683364 717.2458079860903 2280.14069469258 720.6525526403728L2280.14069469258 720.6525526403728Q2279.418051887126 723.5431238621882 2279.418051887126 730.0813206734373L2279.418051887126 730.0813206734373Q2272.3980932055742 723.0613619918856 2255.4676046206555 718.691093596998L2255.4676046206555 718.691093596998Q2244.318258479367 716.0414033103339 2232.721562029941 716.0414033103339L2232.721562029941 716.0414033103339Q2194.490316465216 716.0414033103339 2174.1530832260146 744.362118971692L2174.1530832260146 744.362118971692Q2160.1475774250757 764.4240597135775 2160.1475774250757 790.5768469585742L2160.1475774250757 790.5768469585742Q2160.1475774250757 822.2698957120502 2179.7277562966588 843.7771220648436L2179.7277562966588 843.7771220648436Q2200.5467514061625 866.0414027852552 2233.9259667056976 866.0414027852552L2233.9259667056976 866.0414027852552Q2258.3581758424707 865.8005218501038 2280.6224565628822 852.5176588546187ZM2308.7022912890893 863.6325934337423L2367.959001336305 863.6325934337423Q2367.959001336305 858.2988012982495 2364.1049063738847 857.5761584927957L2364.1049063738847 857.5761584927957Q2362.900501698128 857.3352775576444 2361.6960970223718 857.3352775576444L2361.6960970223718 857.3352775576444L2348.860584335025 857.3352775576444L2348.860584335025 792.2630135046332L2423.1207354859494 792.2630135046332L2423.1207354859494 857.3352775576444L2403.7814375495177 857.3352775576444L2403.7814375495177 863.6325934337423L2463.072559158898 863.6325934337423Q2463.072559158898 858.2988012982495 2459.184052634313 857.5761584927957L2459.184052634313 857.5761584927957Q2457.9796479585566 857.3352775576444 2456.7752432828 857.3352775576444L2456.7752432828 857.3352775576444L2443.939730595453 857.3352775576444L2443.939730595453 724.7475285379446L2463.072559158898 724.7475285379446L2463.072559158898 718.4502126618468L2403.7814375495177 718.4502126618468L2403.7814375495177 724.7475285379446L2423.1207354859494 724.7475285379446L2423.1207354859494 785.2430548230815L2348.860584335025 785.2430548230815L2348.860584335025 724.7475285379446L2367.959001336305 724.7475285379446L2367.959001336305 718.4502126618468L2308.7022912890893 718.4502126618468L2308.7022912890893 724.7475285379446L2328.041589225521 724.7475285379446L2328.041589225521 857.3352775576444L2308.7022912890893 857.3352775576444L2308.7022912890893 863.6325934337423ZM2590.326516043105 762.0152503620648L2595.178546308295 762.0152503620648L2593.9741416325387 718.4502126618468L2482.4118570953297 718.4502126618468L2482.4118570953297 724.7475285379446L2501.785566593926 724.7475285379446L2501.785566593926 857.3352775576444L2482.4118570953297 857.3352775576444L2482.4118570953297 863.6325934337423L2593.9741416325387 863.6325934337423L2595.178546308295 820.0675557335243L2590.326516043105 820.0675557335243L2586.954182950987 831.4577828099635Q2580.8977480100407 852.0014854221516 2569.0257590632987 856.130872881888L2569.0257590632987 856.130872881888Q2565.4125450360293 857.3352775576444 2561.283157576293 857.3352775576444L2561.283157576293 857.3352775576444L2522.570150141265 857.3352775576444L2522.570150141265 792.2630135046332L2572.4325037175813 792.2630135046332L2572.4325037175813 785.2430548230815L2522.570150141265 785.2430548230815L2522.570150141265 724.7475285379446L2561.283157576293 724.7475285379446Q2578.7298195936787 724.7475285379446 2586.231540145533 748.2162139341126L2586.231540145533 748.2162139341126Q2586.713302015836 749.6614995450203 2586.954182950987 750.6250232856254L2586.954182950987 750.6250232856254L2590.326516043105 762.0152503620648ZM2642.838559906085 863.6325934337423L2709.3561095700043 863.6325934337423Q2709.3561095700043 858.2988012982495 2705.5020146075835 857.5761584927957L2705.5020146075835 857.5761584927957Q2704.297609931827 857.3352775576444 2703.0932052560706 857.3352775576444L2703.0932052560706 857.3352775576444L2686.644478541454 857.3352775576444L2686.644478541454 724.7475285379446L2700.6499843423935 724.7475285379446Q2720.2645747761408 724.7475285379446 2726.80277158739 748.4570948692639L2726.80277158739 748.4570948692639Q2726.80277158739 749.420618609869 2727.0436525225414 749.9023804801716L2727.0436525225414 749.9023804801716L2730.8977474849617 766.1102262596365L2737.6768252313623 766.1102262596365L2736.472420555606 718.4502126618468L2616.9610651584044 718.4502126618468L2615.7222489204833 766.1102262596365L2622.501326666884 766.1102262596365L2626.389833191469 749.9023804801716Q2634.1324346784745 726.1928141488523 2652.749089809452 724.7475285379446L2652.749089809452 724.7475285379446L2665.8254834319505 724.7475285379446L2665.8254834319505 857.3352775576444L2642.838559906085 857.3352775576444L2642.838559906085 863.6325934337423ZM2755.8117184920375 863.6325934337423L2815.102840101418 863.6325934337423Q2815.102840101418 858.2988012982495 2811.2487451389975 857.5761584927957L2811.2487451389975 857.5761584927957Q2810.009928901077 857.3352775576444 2808.80552422532 857.3352775576444L2808.80552422532 857.3352775576444L2796.0044231001375 857.3352775576444L2796.0044231001375 724.7475285379446L2815.102840101418 724.7475285379446L2815.102840101418 718.4502126618468L2755.8117184920375 718.4502126618468L2755.8117184920375 724.7475285379446L2775.185427990634 724.7475285379446L2775.185427990634 857.3352775576444L2755.8117184920375 857.3352775576444L2755.8117184920375 863.6325934337423ZM2934.648607060784 718.4502126618468L2934.648607060784 724.7475285379446L2955.192309672972 724.7475285379446L2955.192309672972 833.1439493560225L2863.2446155695106 718.4502126618468L2829.6245193348236 718.4502126618468L2829.6245193348236 724.7475285379446L2848.9638172712557 724.7475285379446L2848.9638172712557 857.3352775576444L2829.6245193348236 857.3352775576444L2829.6245193348236 863.6325934337423L2879.2115804138243 863.6325934337423Q2879.2115804138243 858.2988012982495 2875.3574854514036 857.5761584927957L2875.3574854514036 857.5761584927957Q2874.153080775647 857.3352775576444 2872.9486760998902 857.3352775576444L2872.9486760998902 857.3352775576444L2858.6678778016358 857.3352775576444L2858.6678778016358 745.3256427122972L2953.747024062064 864.8369981094987L2964.861958641188 862.4281887579858L2964.861958641188 724.7475285379446L2984.235668139784 724.7475285379446L2984.235668139784 718.4502126618468L2934.648607060784 718.4502126618468ZM3147.312061237203 798.3194484455797L3087.0574158872178 798.3194484455797L3087.0574158872178 804.5823527595131L3108.839934737327 804.5823527595131L3108.839934737327 842.3318364539358Q3096.7270648554336 856.8535156873419 3076.424243178397 858.5396822334009L3076.424243178397 858.5396822334009Q3074.4971956971867 858.7805631685521 3072.5357366538115 858.7805631685521L3072.5357366538115 858.7805631685521Q3024.3939611857195 858.2988012982495 3024.1530802505686 791.0586088288768L3024.1530802505686 791.0586088288768Q3024.1530802505686 733.4536537655553 3059.011992723176 724.265766667642L3059.011992723176 724.265766667642Q3065.0340161019576 722.8204810567344 3071.8130938483578 722.8204810567344L3071.8130938483578 722.8204810567344Q3096.7270648554336 722.8204810567344 3107.8764109967215 736.6195174846865L3107.8764109967215 736.6195174846865Q3115.1372506134244 746.048285517751 3120.95280461922 766.1102262596365L3120.95280461922 766.1102262596365L3127.215708933153 766.1102262596365L3126.0113042573967 719.1728554673006L3104.9858397749063 723.5431238621882Q3089.7415177360463 716.0414033103339 3072.5357366538115 716.0414033103339L3072.5357366538115 716.0414033103339Q3043.5267897491644 716.0414033103339 3022.7077946396603 735.1398203116142L3022.7077946396603 735.1398203116142Q2999.9617520489464 756.1996963562694 2999.9617520489464 790.0606735261072L2999.9617520489464 790.0606735261072Q2999.9617520489464 828.773680961135 3027.5598249048508 850.556199811244L3027.5598249048508 850.556199811244Q3047.621765646736 866.0414027852552 3072.5357366538115 866.0414027852552L3072.5357366538115 866.0414027852552Q3090.7050414766513 866.0414027852552 3105.467601645209 858.0579203630983L3105.467601645209 858.0579203630983Q3107.394649126419 857.0943966224932 3108.5990538021756 856.130872881888L3108.5990538021756 856.130872881888L3129.1771679765284 863.6325934337423L3129.1771679765284 804.5823527595131L3147.312061237203 804.5823527595131L3147.312061237203 798.3194484455797ZM3390.7050404264937 724.7475285379446L3390.7050404264937 718.4502126618468L3351.992032991466 718.4502126618468L3299.7552816258017 836.7915749454563L3243.595612173388 718.4502126618468L3209.011992198097 718.4502126618468L3209.011992198097 724.7475285379446L3228.351290134528 724.7475285379446L3228.351290134528 857.3352775576444L3209.011992198097 857.3352775576444L3209.011992198097 863.6325934337423L3257.3946486013406 863.6325934337423Q3257.3946486013406 858.2988012982495 3253.54055363892 857.5761584927957L3253.54055363892 857.5761584927957Q3252.3361489631634 857.3352775576444 3251.0973327252423 857.3352775576444L3251.0973327252423 857.3352775576444L3238.0553506649085 857.3352775576444L3238.0553506649085 753.309125134454L3291.049156398191 864.8369981094987L3296.1076560363686 864.8369981094987L3351.992032991466 740.2327315119558L3351.992032991466 857.3352775576444L3332.6527350550346 857.3352775576444L3332.6527350550346 863.6325934337423L3390.7050404264937 863.6325934337423Q3390.7050404264937 858.2988012982495 3386.8509454640734 857.5761584927957L3386.8509454640734 857.5761584927957Q3385.646540788317 857.3352775576444 3384.4421361125605 857.3352775576444L3384.4421361125605 857.3352775576444L3371.3657424900625 857.3352775576444L3371.3657424900625 724.7475285379446L3390.7050404264937 724.7475285379446ZM3494.042961606395 863.6325934337423L3546.314124534224 863.6325934337423Q3546.314124534224 858.2988012982495 3542.425618009639 857.5761584927957L3542.425618009639 857.5761584927957Q3541.2212133338826 857.3352775576444 3540.0168086581257 857.3352775576444L3540.0168086581257 857.3352775576444L3531.7924453008177 857.3352775576444L3476.3898302160223 718.4502126618468L3467.4084124910955 718.4502126618468L3413.210202082057 857.3352775576444L3397.965880043197 857.3352775576444L3397.965880043197 863.6325934337423L3441.049155873113 863.6325934337423Q3441.049155873113 858.2988012982495 3437.1606493485274 857.5761584927957L3437.1606493485274 857.5761584927957Q3435.956244672771 857.3352775576444 3434.7518399970145 857.3352775576444L3434.7518399970145 857.3352775576444L3422.9142626124376 857.3352775576444L3441.049155873113 810.3979067653084L3491.5997406927177 810.3979067653084L3509.7690455155575 857.3352775576444L3494.042961606395 857.3352775576444L3494.042961606395 863.6325934337423ZM3466.204007815339 744.8438808419946L3488.9500504060534 803.3779480837567L3443.6988461597766 803.3779480837567L3466.204007815339 744.8438808419946ZM3663.898432450215 825.6422288041682L3663.898432450215 825.6422288041682Q3663.898432450215 804.1005908892106 3640.6706279891982 791.0586088288768L3640.6706279891982 791.0586088288768Q3636.059478659159 788.6153879151994 3612.34991232784 778.2230961415297L3612.34991232784 778.2230961415297Q3590.808274412882 769.0352090436164 3585.268012904403 759.3655600754006L3585.268012904403 759.3655600754006Q3582.3430301204226 754.0317679399078 3582.3430301204226 747.9753329989613L3582.3430301204226 747.9753329989613Q3582.3430301204226 731.7674872194963 3598.0691140295853 725.4701713433984L3598.0691140295853 725.4701713433984Q3604.848191775986 722.8204810567344 3613.072555133294 722.8204810567344L3613.072555133294 722.8204810567344Q3633.4097883724953 722.8204810567344 3644.0429610813167 736.6195174846865L3644.0429610813167 736.6195174846865Q3651.062919762868 746.048285517751 3650.822038827717 759.6064410105519L3650.822038827717 759.6064410105519L3658.0828784444193 759.6064410105519L3658.0828784444193 717.2458079860903Q3652.267324438624 717.2458079860903 3651.303800698019 720.893433575524L3651.303800698019 720.893433575524Q3650.822038827717 722.579600121583 3650.822038827717 725.4701713433984L3650.822038827717 725.4701713433984Q3633.6506693076462 716.0414033103339 3612.1090313926893 716.0414033103339L3612.1090313926893 716.0414033103339Q3585.990655709857 716.0414033103339 3571.4689764764507 730.5630825437398L3571.4689764764507 730.5630825437398Q3561.799327508235 740.7144933822583 3561.799327508235 754.2726488750592L3561.799327508235 754.2726488750592Q3561.799327508235 774.575470552096 3584.510958536784 787.410983239443L3584.510958536784 787.410983239443Q3588.640345996521 789.5789116558045 3612.1090313926893 799.7647340564874L3612.1090313926893 799.7647340564874Q3633.8915502427976 809.4343830247033 3639.707104248593 819.3449129280704L3639.707104248593 819.3449129280704Q3642.8385564055598 824.9195859987144 3642.8385564055598 831.4577828099635L3642.8385564055598 831.4577828099635Q3642.8385564055598 848.3882713948824 3626.3898296909438 855.8899919467367L3626.3898296909438 855.8899919467367Q3618.647228203938 859.2623250388547 3609.2184601708736 859.2623250388547L3609.2184601708736 859.2623250388547Q3572.1916192819044 858.7805631685521 3568.0622318221685 814.0455323547421L3568.0622318221685 814.0455323547421L3560.801392205465 814.0455323547421L3560.801392205465 864.1143553040448Q3566.6169462112607 864.1143553040448 3567.5804699518653 860.7420222119268L3567.5804699518653 860.7420222119268Q3568.0622318221685 858.7805631685521 3568.0622318221685 853.7220635303752L3568.0622318221685 853.7220635303752Q3586.7132985153107 866.0414027852552 3610.4228648466296 866.0414027852552L3610.4228648466296 866.0414027852552Q3638.227407075521 866.0414027852552 3653.4717291143807 851.0379616815466L3653.4717291143807 851.0379616815466Q3663.898432450215 840.4047889727256 3663.898432450215 825.6422288041682ZM3711.558446048005 863.6325934337423L3778.075995711924 863.6325934337423Q3778.075995711924 858.2988012982495 3774.2219007495028 857.5761584927957L3774.2219007495028 857.5761584927957Q3773.0174960737468 857.3352775576444 3771.8130913979903 857.3352775576444L3771.8130913979903 857.3352775576444L3755.364364683374 857.3352775576444L3755.364364683374 724.7475285379446L3769.369870484313 724.7475285379446Q3788.984460918061 724.7475285379446 3795.5226577293097 748.4570948692639L3795.5226577293097 748.4570948692639Q3795.5226577293097 749.420618609869 3795.763538664461 749.9023804801716L3795.763538664461 749.9023804801716L3799.617633626881 766.1102262596365L3806.396711373282 766.1102262596365L3805.1923066975255 718.4502126618468L3685.680951300324 718.4502126618468L3684.4421350624034 766.1102262596365L3691.221212808803 766.1102262596365L3695.1097193333885 749.9023804801716Q3702.852320820394 726.1928141488523 3721.468975951372 724.7475285379446L3721.468975951372 724.7475285379446L3734.54536957387 724.7475285379446L3734.54536957387 857.3352775576444L3711.558446048005 857.3352775576444L3711.558446048005 863.6325934337423ZM3932.446263581732 762.0152503620648L3937.298293846923 762.0152503620648L3936.093889171166 718.4502126618468L3824.5316046339567 718.4502126618468L3824.5316046339567 724.7475285379446L3843.905314132553 724.7475285379446L3843.905314132553 857.3352775576444L3824.5316046339567 857.3352775576444L3824.5316046339567 863.6325934337423L3936.093889171166 863.6325934337423L3937.298293846923 820.0675557335243L3932.446263581732 820.0675557335243L3929.073930489614 831.4577828099635Q3923.017495548668 852.0014854221516 3911.179918164091 856.130872881888L3911.179918164091 856.130872881888Q3907.5322925746564 857.3352775576444 3903.437316677085 857.3352775576444L3903.437316677085 857.3352775576444L3864.724309242057 857.3352775576444L3864.724309242057 792.2630135046332L3914.552251256209 792.2630135046332L3914.552251256209 785.2430548230815L3864.724309242057 785.2430548230815L3864.724309242057 724.7475285379446L3903.437316677085 724.7475285379446Q3920.849567132306 724.7475285379446 3928.3512876841605 748.2162139341126L3928.3512876841605 748.2162139341126Q3928.8330495544633 749.6614995450203 3929.073930489614 750.6250232856254L3929.073930489614 750.6250232856254L3932.446263581732 762.0152503620648ZM3959.0808126970314 863.6325934337423L4018.371934306412 863.6325934337423L4018.371934306412 857.3352775576444L3999.2391057429672 857.3352775576444L3999.2391057429672 797.0806322076588L4022.2260292688325 797.0806322076588L4060.939036703861 863.6325934337423L4097.484115722527 863.6325934337423Q4097.484115722527 858.2988012982495 4094.559132938547 857.5761584927957L4094.559132938547 857.5761584927957Q4093.3547282627906 857.3352775576444 4091.6685617167313 857.3352775576444L4091.6685617167313 857.3352775576444L4082.4806746188183 857.3352775576444L4043.5267862486394 794.9127037912973Q4066.5137097745046 789.3380307206533 4074.978954066964 770.9622565248268L4074.978954066964 770.9622565248268Q4078.1104062239306 763.7014169081237 4078.1104062239306 756.1996963562694L4078.1104062239306 756.1996963562694Q4078.1104062239306 738.0648030955941 4062.384322314768 727.1563378894574L4062.384322314768 727.1563378894574Q4049.583221189586 718.4502126618468 4030.6912735612923 718.4502126618468L4030.6912735612923 718.4502126618468L3959.0808126970314 718.4502126618468L3959.0808126970314 724.7475285379446L3978.420110633463 724.7475285379446L3978.420110633463 857.3352775576444L3959.0808126970314 857.3352775576444L3959.0808126970314 863.6325934337423ZM3999.2391057429672 724.7475285379446L4023.430433944589 724.7475285379446Q4044.2494290540926 724.7475285379446 4052.23291147625 741.6780171228635L4052.23291147625 741.6780171228635Q4055.3643636332163 748.6979758044151 4055.3643636332163 756.4405772914207L4055.3643636332163 756.4405772914207Q4055.3643636332163 773.8528277466422 4043.285905313488 783.5568882770225L4043.285905313488 783.5568882770225Q4035.0615419561796 790.0606735261072 4024.1530767500426 790.0606735261072L4024.1530767500426 790.0606735261072L3999.2391057429672 790.0606735261072L3999.2391057429672 724.7475285379446ZM4215.068423638518 825.6422288041682L4215.068423638518 825.6422288041682Q4215.068423638518 804.1005908892106 4191.840619177501 791.0586088288768L4191.840619177501 791.0586088288768Q4187.2294698474625 788.6153879151994 4163.519903516143 778.2230961415297L4163.519903516143 778.2230961415297Q4141.978265601185 769.0352090436164 4136.438004092706 759.3655600754006L4136.438004092706 759.3655600754006Q4133.513021308727 754.0317679399078 4133.513021308727 747.9753329989613L4133.513021308727 747.9753329989613Q4133.513021308727 731.7674872194963 4149.239105217888 725.4701713433984L4149.239105217888 725.4701713433984Q4156.018182964289 722.8204810567344 4164.242546321597 722.8204810567344L4164.242546321597 722.8204810567344Q4184.579779560798 722.8204810567344 4195.21295226962 736.6195174846865L4195.21295226962 736.6195174846865Q4202.23291095117 746.048285517751 4201.992030016019 759.6064410105519L4201.992030016019 759.6064410105519L4209.252869632723 759.6064410105519L4209.252869632723 717.2458079860903Q4203.437315626927 717.2458079860903 4202.473791886323 720.893433575524L4202.473791886323 720.893433575524Q4201.992030016019 722.579600121583 4201.992030016019 725.4701713433984L4201.992030016019 725.4701713433984Q4184.82066049595 716.0414033103339 4163.279022580991 716.0414033103339L4163.279022580991 716.0414033103339Q4137.160646898159 716.0414033103339 4122.638967664754 730.5630825437398L4122.638967664754 730.5630825437398Q4112.969318696538 740.7144933822583 4112.969318696538 754.2726488750592L4112.969318696538 754.2726488750592Q4112.969318696538 774.575470552096 4135.715361287252 787.410983239443L4135.715361287252 787.410983239443Q4139.810337184824 789.5789116558045 4163.279022580991 799.7647340564874L4163.279022580991 799.7647340564874Q4185.061541431101 809.4343830247033 4190.8770954368965 819.3449129280704L4190.8770954368965 819.3449129280704Q4194.008547593863 824.9195859987144 4194.008547593863 831.4577828099635L4194.008547593863 831.4577828099635Q4194.008547593863 848.3882713948824 4177.559820879247 855.8899919467367L4177.559820879247 855.8899919467367Q4169.817219392241 859.2623250388547 4160.3884513591765 859.2623250388547L4160.3884513591765 859.2623250388547Q4123.361610470207 858.7805631685521 4119.266634572636 814.0455323547421L4119.266634572636 814.0455323547421L4112.005794955932 814.0455323547421L4112.005794955932 864.1143553040448Q4117.786937399564 864.1143553040448 4118.750461140169 860.7420222119268L4118.750461140169 860.7420222119268Q4119.266634572636 858.7805631685521 4119.266634572636 853.7220635303752L4119.266634572636 853.7220635303752Q4137.883289703614 866.0414027852552 4161.592856034933 866.0414027852552L4161.592856034933 866.0414027852552Q4189.431809825988 866.0414027852552 4204.676131864848 851.0379616815466L4204.676131864848 851.0379616815466Q4215.068423638518 840.4047889727256 4215.068423638518 825.6422288041682Z " fill="#292826" transform="matrix(0.20758856487037913,0,0,0.20758856487037913,0,135.78882615483855)"/></g></svg>